<svg xmlns="http://www.w3.org/2000/svg" viewBox="0 0 355 89.17"><defs><style>.cls-1{fill:#1a1a1a;}.cls-2{fill:#ffdb5e;}.cls-3{fill:#664500;}.cls-4{fill:#fff;}.cls-5{fill:#ee9547;}</style></defs><g id="レイヤー_2" data-name="レイヤー 2"><g id="レイヤー_2-2" data-name="レイヤー 2"><path class="cls-1" d="M329.39,77.25c0,7.84-2.73,11.92-11,11.92s-11.13-4.08-11.13-11.92V63.1c0-6.68,4-10.39,11.13-10.39s11,3.71,11,10.39Zm-8.16-13.59c0-2.14-.19-4.69-2.88-4.69s-2.92,2.55-2.92,4.69V78c0,2,.33,5,3,5s2.83-3,2.83-5Z"/><path class="cls-1" d="M189.4,29.22c0,7.84-2.74,11.93-11,11.93s-11.13-4.09-11.13-11.93V15.07c0-6.68,4-10.39,11.13-10.39s11,3.71,11,10.39Zm-8.17-13.59c0-2.13-.18-4.68-2.87-4.68s-2.93,2.55-2.93,4.68V29.92c0,2,.33,5,3,5s2.83-3,2.83-5Z"/><path class="cls-1" d="M198.07,28.71a1.4,1.4,0,0,1,1.39,1.4v3c0,1.3.56,1.81,1.67,1.76s1.63-.28,1.58-1.25l0-26.72a1.39,1.39,0,0,1,1.39-1.39h5.38a1.39,1.39,0,0,1,1.39,1.39V29.73c0,2.46.14,5.15-1.06,7.47-1.72,3.2-4.78,3.95-8.31,3.95-3.9,0-7.28-1.86-8.26-5.76a18.19,18.19,0,0,1-.37-4.68v-.6a1.4,1.4,0,0,1,1.39-1.4Z"/><path class="cls-1" d="M169.45,65.7a1.39,1.39,0,0,1-1.39-1.39v-.84c0-3-1.07-4.5-2.6-4.5-2.55,0-3.15,1.35-3.15,3.62l-.05,17.21c0,2,.79,3.11,2.92,3.11,2.79,0,3-2.88,3-5V76.14a1.39,1.39,0,0,1,1.39-1.39H175a1.39,1.39,0,0,1,1.39,1.39V79c0,6-3.43,10.16-11.78,10.16-7.52,0-10.44-4-10.44-11.08V63.8c0-7.57,3.48-11.09,11-11.09,7,0,11.13,3,11.13,10.07v1.53a1.39,1.39,0,0,1-1.39,1.39Z"/><rect class="cls-1" x="180.49" y="53.54" width="8.16" height="34.79" rx="2"/><path class="cls-1" d="M137.26,53.54a2.61,2.61,0,0,0-2.43,2l-6.75,30.88a1.55,1.55,0,0,0,1.57,2h4.21a2.39,2.39,0,0,0,2.29-2l.4-2.82a2.4,2.4,0,0,1,2.29-2h2.4a2.47,2.47,0,0,1,2.34,2l.48,2.83a2.47,2.47,0,0,0,2.34,2h4.26a1.54,1.54,0,0,0,1.57-2L145.52,55.5a2.59,2.59,0,0,0-2.42-2Zm2.46,21.9a1.67,1.67,0,0,1-1.7-2l1.34-8.84c.17-1.09.51-2,.76-2s.6.89.75,2l1.29,8.84a1.68,1.68,0,0,1-1.71,2Z"/><path class="cls-1" d="M108.4,86.34a2,2,0,0,0,2,2h4.17a2,2,0,0,0,2-2V75.63a2,2,0,0,1,2-2h6.16a2,2,0,0,0,2-2v-3a2,2,0,0,0-2-2h-6.16a2,2,0,0,1-2-2V62.5a2,2,0,0,1,2-2h7a2,2,0,0,0,2-2v-3a2,2,0,0,0-2-2H110.4a2,2,0,0,0-2,2Z"/><path class="cls-1" d="M127.52,35.35a2,2,0,0,0-2-2h-7.09a2,2,0,0,1-2-2V27.84a2,2,0,0,1,2-2h6.21a2,2,0,0,0,2-2v-3a2,2,0,0,0-2-2h-6.21a2,2,0,0,1-2-2v-2.4a2,2,0,0,1,2-2H125a2,2,0,0,0,2-2v-3a2,2,0,0,0-2-2h-14.7a2,2,0,0,0-2,2V38.31a2,2,0,0,0,2,2h15.26a2,2,0,0,0,2-2Z"/><path class="cls-1" d="M155.57,18.1c.28,0,.48.9.44,2l-.55,18.21a1.93,1.93,0,0,0,1.94,2h3.79a2,2,0,0,0,2-2V7.52a2,2,0,0,0-2-2h-7.41a2.59,2.59,0,0,0-2.42,2l-3.53,16.64c-.23,1.08-.43,2-.46,2s-.23-.88-.45-2L143.5,7.48a2.56,2.56,0,0,0-2.4-2h-7.5a2,2,0,0,0-2,2V38.31a2,2,0,0,0,2,2h3.74a1.94,1.94,0,0,0,1.95-2l-.5-18.21c0-1.1.17-2,.45-2s.68.88.9,2l3.77,18.29a2.56,2.56,0,0,0,2.4,2h2.08a2.58,2.58,0,0,0,2.41-2l3.86-18.3C154.88,19,155.3,18.1,155.57,18.1Z"/><rect class="cls-1" x="294.88" y="53.54" width="8.16" height="34.79" rx="2"/><path class="cls-1" d="M270.34,58.5a2,2,0,0,0,2,2h2.4a2,2,0,0,1,2,2V86.34a2,2,0,0,0,2,2h4.17a2,2,0,0,0,2-2V62.5a2,2,0,0,1,2-2h2.59a2,2,0,0,0,2-2v-3a2,2,0,0,0-2-2H272.34a2,2,0,0,0-2,2Z"/><path class="cls-1" d="M349.25,53.54a1.91,1.91,0,0,0-1.92,2L347.88,69c0,1.1-.08,2-.27,2s-.63-.86-1-1.91l-4.43-13.64a3,3,0,0,0-2.62-1.91H335.2a2,2,0,0,0-2,2v30.8a2,2,0,0,0,2,2h3.74a1.92,1.92,0,0,0,1.93-2L340.36,73c-.05-1.09.08-2,.28-2s.63.85,1,1.9L346,86.44a3,3,0,0,0,2.62,1.9H353a2,2,0,0,0,2-2V55.54a2,2,0,0,0-2-2Z"/><path class="cls-1" d="M255.64,53.54a2.61,2.61,0,0,0-2.43,2l-6.75,30.88a1.55,1.55,0,0,0,1.57,2h4.21a2.39,2.39,0,0,0,2.29-2l.4-2.82a2.4,2.4,0,0,1,2.29-2h2.4a2.47,2.47,0,0,1,2.34,2l.48,2.83a2.47,2.47,0,0,0,2.34,2H269a1.54,1.54,0,0,0,1.57-2L263.9,55.5a2.59,2.59,0,0,0-2.42-2Zm2.46,21.9a1.67,1.67,0,0,1-1.7-2l1.34-8.84c.17-1.09.51-2,.76-2s.6.89.76,2l1.28,8.84a1.68,1.68,0,0,1-1.71,2Z"/><path class="cls-1" d="M200.9,55.54a2,2,0,0,0-2-2h-4.16a2,2,0,0,0-2,2v30.8a2,2,0,0,0,2,2h14.13a2,2,0,0,0,2-2v-3a2,2,0,0,0-2-2h-6a2,2,0,0,1-2-2Z"/><rect class="cls-1" x="215.56" y="5.52" width="8.16" height="34.79" rx="2"/><path class="cls-1" d="M225.53,58.5a2,2,0,0,0,2,2h2.4a2,2,0,0,1,2,2V86.34a2,2,0,0,0,2,2h4.17a2,2,0,0,0,2-2V62.5a2,2,0,0,1,2-2h2.59a2,2,0,0,0,2-2v-3a2,2,0,0,0-2-2H227.53a2,2,0,0,0-2,2Z"/><rect class="cls-1" x="213.98" y="53.54" width="8.16" height="34.79" rx="2"/><path class="cls-2" d="M61.25,69.17v.77A38.66,38.66,0,0,0,76.33,47a3.42,3.42,0,0,0-1.94-.62c-5.36,0-.21,4.23-5,14.69C66.91,66.69,61.25,63.56,61.25,69.17Z"/><path class="cls-2" d="M59.16,69.17c0-4.4,2.88-5.42,4.78-6.09,1.54-.55,2.76-1,3.6-2.84A21.44,21.44,0,0,0,69.6,50c0-1.78,0-3.32,1.13-4.51a5,5,0,0,1,3.66-1.2,5.48,5.48,0,0,1,2.36.54A38.63,38.63,0,1,0,38.63,77.26a38.43,38.43,0,0,0,20.53-5.91Z"/><path class="cls-3" d="M13.54,42.79a2.31,2.31,0,0,1-1.54-4,28.43,28.43,0,0,1,9.11-4.93c.72-.25,1.43-.47,2.12-.67a.82.82,0,0,0,.05-1.57h0a35,35,0,0,0-7.6-1.73,2.31,2.31,0,1,1,.38-4.6,39.3,39.3,0,0,1,8.72,2,23.72,23.72,0,0,1,8.11,5,2.31,2.31,0,0,1-1.4,3.94,44,44,0,0,0-8.87,2,24.14,24.14,0,0,0-7.52,4A2.27,2.27,0,0,1,13.54,42.79Z"/><path class="cls-3" d="M63.72,42.79a2.32,2.32,0,0,1-1.54-.59,24.14,24.14,0,0,0-7.52-4,44,44,0,0,0-8.87-2,2.31,2.31,0,0,1-1.4-3.94,23.72,23.72,0,0,1,8.11-5,39.3,39.3,0,0,1,8.72-2,2.31,2.31,0,1,1,.38,4.6A35.92,35.92,0,0,0,54,31.58h0A.82.82,0,0,0,54,33.16c.69.2,1.4.42,2.12.67a28.43,28.43,0,0,1,9.11,4.93,2.31,2.31,0,0,1-1.54,4Z"/><path class="cls-3" d="M62.18,49.25c0,10.63-10.54,19.24-23.55,19.24S15.08,59.88,15.08,49.25a14.75,14.75,0,0,1,.12-1.89,2.77,2.77,0,0,1,3.69-2.29c4.22,1.55,11.45,2.56,19.66,2.56s15.59-1,19.79-2.6a2.77,2.77,0,0,1,3.72,2.27A15.71,15.71,0,0,1,62.18,49.25Z"/><path class="cls-4" d="M57.26,49.43a.62.62,0,0,1,.63,1C53.62,55,46.59,58,38.63,58s-15-3-19.26-7.51a.62.62,0,0,1,.64-1c4.3,1.34,11,2.21,18.62,2.21S53,50.77,57.26,49.43Z"/><path class="cls-2" d="M99.41,67.48A4.08,4.08,0,0,0,99,65.81c-1.6-5.15-9.08-4.78-19.73-5-1.78,0-.76-2.14-.13-6.75.4-3-1.53-7.61-4.78-7.61-5.36,0-.21,4.23-5,14.69-2.53,5.58-8.19,2.45-8.19,8.06V82c0,2.18.22,4.28,3.29,4.63S66.85,89,71.14,89H92.65a4,4,0,0,0,4-4,3.94,3.94,0,0,0-.83-2.4A3.92,3.92,0,0,0,97,76.8a4,4,0,0,0,.91-6.24A4,4,0,0,0,99.41,67.48Z"/><path class="cls-5" d="M85.18,71.46H95.44a4,4,0,0,0,3.41-1.95,1,1,0,1,0-1.79-1.06,1.89,1.89,0,0,1-1.62.92H84.94a1.89,1.89,0,1,1,0-3.77h7a1,1,0,1,0,0-2.09h-7a4,4,0,0,0-2.54,7,3.93,3.93,0,0,0,.25,5.86,4,4,0,0,0,.5,6.06,4,4,0,0,0,3,6.59h6.54a4,4,0,0,0,3.41-1.94A1,1,0,1,0,94.27,86a1.9,1.9,0,0,1-1.62.93H86.11a1.89,1.89,0,1,1,0-3.77h7.75a4,4,0,0,0,3.42-2,1,1,0,1,0-1.79-1.07,1.88,1.88,0,0,1-1.63.93H85.45a1.89,1.89,0,1,1,0-3.77h9.64a4,4,0,0,0,3.42-1.95,1,1,0,1,0-1.8-1.06,1.88,1.88,0,0,1-1.62.92H85.18a1.89,1.89,0,0,1,0-3.77Z"/></g></g></svg>